# xmcd
#
# Track frame offsets:
#	150
#	18855
#	38109
#	53425
#	73981
#	89167
#	107582
#	128336
#	143667
#	159257
#	175466
#	192267
#	211738
#	232627
#	252872
#	270017
#	283036
#	301684
#	318475
#	335295
#
# Disc length: 4614 seconds
#
# Revision: 0
# Processed by: cddbd v1.5.2PL0 Copyright (c) Steve Scherf et al.
# Submitted via: SynApp - FreeCDDB Version: 2.3
#
DISCID=00120414
DTITLE=Various Artist - Country
DYEAR=1985
DGENRE=Country
TTITLE0=The Road Hammers - I'm A Road Hammer
TTITLE1=Sugarland - Baby Girl
TTITLE2=Big and Rich - Save A Horse (Ride A Cowboy)
TTITLE3=Paul Brandt - Convoy
TTITLE4=George Canyon - I'll Never Do Better Than You
TTITLE5=Terri Clark - The World Needs A Drink
TTITLE6=Dierks Bentley - Lot Of Leavin' Left To Do
TTITLE7=Hot Apple Pie - Hillbillies
TTITLE8=Emerson Drive - If You Were My Girl
TTITLE9=Gary Allan - Nothing On But The Radio
TTITLE10=Reba McEntire - He Gets That From Me
TTITLE11=Jason McCoy - I Lie
TTITLE12=Le Ann Womack - I May Hate Myself In The Morni
TTITLE13=Doc Walker - I Am Ready
TTITLE14=Deric Ruttan - Take The Wheel
TTITLE15=Moot Davis - Last Train Home
TTITLE16=Alana Levandoski - Red Headed Girl
TTITLE17=Jake Matthews - Kings For A Day
TTITLE18=Johnny Reid - You Still Owe Me
TTITLE19=Joe Nichols - What's A Guy Gotta Do
EXTD=
EXTT0=
EXTT1=
EXTT2=
EXTT3=
EXTT4=
EXTT5=
EXTT6=
EXTT7=
EXTT8=
EXTT9=
EXTT10=
EXTT11=
EXTT12=
EXTT13=
EXTT14=
EXTT15=
EXTT16=
EXTT17=
EXTT18=
EXTT19=
PLAYORDER=
